<svg xmlns="http://www.w3.org/2000/svg" version="1.1" xmlns:xlink="http://www.w3.org/1999/xlink" width="512" height="512" x="0" y="0" viewBox="0 0 24 24" style="enable-background:new 0 0 512 512" xml:space="preserve" className=""><g><path d="m22.448 7.608-1.2 8.58a3.142 3.142 0 0 1-1.257 2.312.311.311 0 0 1-.488-.244V9.665A3.829 3.829 0 0 0 15.335 5.5H5.923c-.3 0-.307-.27-.286-.39a3.134 3.134 0 0 1 1.112-2.085 3.2 3.2 0 0 1 2.442-.473l10.561 1.48a3.211 3.211 0 0 1 2.223 1.134 3.191 3.191 0 0 1 .473 2.442zM18 9.665v8.668A2.358 2.358 0 0 1 15.335 21H4.667A2.357 2.357 0 0 1 2 18.333V9.665A2.357 2.357 0 0 1 4.667 7h10.668A2.358 2.358 0 0 1 18 9.665zM13.25 14a.75.75 0 0 0-.75-.75h-1.75V11.5a.75.75 0 0 0-1.5 0v1.75H7.5a.75.75 0 0 0 0 1.5h1.75v1.75a.75.75 0 0 0 1.5 0v-1.75h1.75a.75.75 0 0 0 .75-.75z" fill="#ffffff" opacity="1" data-original="#000000" className=""></path></g></svg>