<svg xmlns="http://www.w3.org/2000/svg" version="1.1" xmlns:xlink="http://www.w3.org/1999/xlink" width="512" height="512" x="0" y="0" viewBox="0 0 20 21" style="enable-background:new 0 0 512 512" xml:space="preserve" class="" transform="rotate(-180)"><g><path fill="#ffffff" fill-rule="evenodd" d="M19.407 10.523c0-.851-.353-1.57-.904-2.292-.53-.696-1.31-1.475-2.277-2.442l-1.492-1.492c-.967-.967-1.746-1.746-2.442-2.277-.722-.551-1.44-.904-2.292-.904-.851 0-1.57.353-2.292.904-.696.53-1.475 1.31-2.442 2.277L3.774 5.79c-.967.967-1.746 1.746-2.277 2.442-.551.722-.904 1.44-.904 2.292 0 .851.353 1.57.904 2.292.53.696 1.31 1.475 2.277 2.442l1.492 1.492c.967.967 1.746 1.747 2.442 2.277.722.551 1.44.904 2.292.904.851 0 1.57-.353 2.292-.904.696-.53 1.475-1.31 2.442-2.277l1.492-1.492c.967-.967 1.747-1.746 2.277-2.442.551-.722.904-1.44.904-2.292zm-4.877.53a.75.75 0 0 0 0-1.06l-3-3a.75.75 0 1 0-1.06 1.06l1.72 1.72H6.8a.75.75 0 1 0 0 1.5h5.39l-1.72 1.72a.75.75 0 0 0 1.06 1.06z" clip-rule="evenodd" opacity="1" data-original="#000000" class=""></path></g></svg>