<svg xmlns="http://www.w3.org/2000/svg" version="1.1" xmlns:xlink="http://www.w3.org/1999/xlink" width="512" height="512" x="0" y="0" viewBox="0 0 512 512" style="enable-background:new 0 0 512 512" xml:space="preserve" className=""><g><path d="M222.15 427.05h-.19a9.088 9.088 0 0 1-6.5-2.93L44 237.68a9.09 9.09 0 0 1-.64-11.53 9.1 9.1 0 0 1 11.19-2.86l156.93 73.48c1.32.62 2.88.32 3.89-.73L454.75 45.85c3.24-3.39 8.54-3.76 12.22-.84s4.53 8.16 1.96 12.09L230.81 421.88c-.34.53-.74 1.01-1.18 1.46l-1.05 1.05a9.141 9.141 0 0 1-6.43 2.66z" fill="#ffffff" opacity="1" data-original="#000000" className=""></path></g></svg>