<svg xmlns="http://www.w3.org/2000/svg" version="1.1" xmlns:xlink="http://www.w3.org/1999/xlink" width="512" height="512" x="0" y="0" viewBox="0 0 512.265 512.265" style="enable-background:new 0 0 512 512" xml:space="preserve" className=""><g><path d="M413.462 397.866c-8.284 0-15-6.716-15-15v-5.433h-5.433c-8.284 0-15-6.716-15-15s6.716-15 15-15h5.433V342c0-8.284 6.716-15 15-15s15 6.716 15 15v5.433h5.433c8.284 0 15 6.716 15 15s-6.716 15-15 15h-5.433v5.433c0 8.284-6.716 15-15 15zM288.895 50.433h-5.433v5.433c0 8.284-6.716 15-15 15s-15-6.716-15-15v-5.433h-5.433c-8.284 0-15-6.716-15-15s6.716-15 15-15h5.433V15c0-8.284 6.716-15 15-15s15 6.716 15 15v5.433h5.433c8.284 0 15 6.716 15 15s-6.716 15-15 15zM105.895 134.433h-5.433v5.433c0 8.284-6.716 15-15 15s-15-6.716-15-15v-5.433h-5.433c-8.284 0-15-6.716-15-15s6.716-15 15-15h5.433V99c0-8.284 6.716-15 15-15s15 6.716 15 15v5.433h5.433c8.284 0 15 6.716 15 15s-6.716 15-15 15zM307.101 312.856a140.159 140.159 0 0 0-4.237-4.469 138.36 138.36 0 0 0-24.648-19.728 135.8 135.8 0 0 0-29.923-14.014L431.489 14.104c10.869-15.13 33.835-18.466 48.542-6.959 15.644 11.236 19.125 33.341 7.638 48.812zM8.231 484.01c66.541-35.243 90.056-91.294 97.078-113.757 5.136-16.43 14.037-31.083 25.74-42.373 20.083-19.374 46.516-30.044 74.428-30.044 20.413 0 39.936 5.664 56.799 16.24a108.107 108.107 0 0 1 19.296 15.446c20.28 20.431 31.331 47.542 31.117 76.339-.221 29.883-12.946 56.922-33.213 76.269h217.539c8.284 0 15 6.716 15 15s-6.716 15-15 15l-481.763.136A14.999 14.999 0 0 1 .695 500.883a14.997 14.997 0 0 1 7.536-16.873z" fill="#ffffff" opacity="1" data-original="#000000" className=""></path></g></svg>