<svg xmlns="http://www.w3.org/2000/svg" version="1.1" xmlns:xlink="http://www.w3.org/1999/xlink" width="512" height="512" x="0" y="0" viewBox="0 0 64 64" style="enable-background:new 0 0 512 512" xml:space="preserve" className="" transform="rotate(90)"><g><path fill="#ffffff" d="M29.3 53.98c-1.15 0-2.29-.45-3.14-1.35a4.317 4.317 0 0 1 .17-6.11L41.67 32 26.33 17.49a4.317 4.317 0 0 1-.17-6.11 4.317 4.317 0 0 1 6.11-.17l18.66 17.65c.86.82 1.35 1.95 1.35 3.14s-.49 2.32-1.35 3.14L32.27 52.79c-.83.79-1.9 1.19-2.97 1.19z" opacity="1" data-original="#010101" className=""></path><path fill="#ffffff" d="M47.96 36.32H4.32a4.321 4.321 0 0 1 0-8.64h43.64c2.39 0 4.32 1.94 4.32 4.32.01 2.39-1.93 4.32-4.32 4.32zM59.68 56.46c-2.39 0-4.32-1.94-4.32-4.32V11.86a4.321 4.321 0 0 1 8.64 0v40.28c0 2.39-1.94 4.32-4.32 4.32z" opacity="1" data-original="#010101" className=""></path></g></svg>