<svg xmlns="http://www.w3.org/2000/svg" version="1.1" xmlns:xlink="http://www.w3.org/1999/xlink" width="512" height="512" x="0" y="0" viewBox="0 0 195 195" style="enable-background:new 0 0 512 512" xml:space="preserve" className=""><g><path d="M83.6 112.2c1-.9 2.2-1.6 3-2.7 5.2-7.4 10.6-14.6 15.3-22.2 5.2-8.4 12.3-13.5 21.9-15.5.9-.2 1.8-.5 2.6-.7-.9-2.9-1.9-5.6-2.7-8.4-.5-1.7-1.1-1.9-2.6-1.1-2.8 1.4-5.6 2.9-8.6 4-6.4 2.5-12.3.4-17.8-2.8-2.4-1.4-3.3-7.9-1.6-10 .5-.7 1.6-1.2 2.5-1.3 11.4-1.8 21.5-7.4 32.3-11.1.5-.2 1-.3 1.3-.6 2.1-1.9 4.2-1.3 5.8.4 2.8 3.1 5.7 6.3 7.8 9.9 3.4 5.8 6.1 12 9.1 18 .5.9.7 2.1 1.4 2.8 2.5 3 1.6 5.8-.4 8.4-4.5 6-9.1 12-13.8 17.9-5.7 7.1-11.5 14-17.4 21-1.2 1.4-1.6 2.8-1.5 4.6.9 13.2 1.7 26.4 2.6 39.5.2 2.5-.6 4.5-2.6 5.6-2.8 1.5-5.8 3.1-8.8 3.8-12.4 2.8-24.8 2.6-37.1-.5-2.8-.7-5.5-2.3-8.1-3.6-1.5-.8-2.1-2.2-2.1-4.1.1-9.7.1-19.4 0-29.2-.1-4.5-2.2-8.3-5.1-11.3-4.4-4.5-8.2-9.2-9.8-15.3-1.2-4.5-2.4-9.1-3.5-13.6-.2-.7-.4-1.5-.2-2.1.4-1.3.8-2.9 1.7-3.7.5-.4 2.3.5 3.3 1.2 3.8 2.6 7.5 5.4 11.2 8.1 1.6 1.2 2.7.4 3.8-.6 2.7-2.4 5.4-4.9 8.1-7.3 6.3-5.8 14.1-7.6 22.3-8.3.9-.1 2 .2 2.9.5 1.7.6 2.5 1.9 1.6 3.6-.5.9-1 1.8-1.6 2.7L84.7 108c-.8 1.1-1.4 2.3-2 3.4.2.2.5.5.9.8z" fill="#049dea" opacity="1" data-original="#000000" className=""></path><path d="M80.2 82.7c-3.9-.1-6.2-1.3-7.9-3.4-5-6.2-9.9-12.4-14.7-18.7-1.4-1.9-1.2-4-.3-6 3.5-7.9 12.7-9.1 18-2.3 3.9 5 7.9 10.1 11.9 15.1 4.9 6.1 4.4 9.2-2.4 13.2-1.7.9-3.7 1.6-4.6 2.1zM64.1 92.8c-1.5-.6-2.4-.8-3.3-1.3-7.6-3.8-13.7-9.4-19.3-15.7-1.6-1.7-1.5-3.7-.4-5.6 1.8-3 4.5-5 7.8-6.2 2-.7 3.7-.1 5.2 1.2 6.1 5.2 11.2 11.2 15.4 18 1.3 2.2 1.2 3.9-.8 5.5-1.6 1.3-3.1 2.8-4.6 4.1zM77.8 43.2c.1-8 6.1-13.6 12.8-13.1.9.1 1.9.8 2.5 1.5 2.5 3 4.9 6.2 7.4 9.2 1.7 2.1 1.8 3-.7 4.3-2 1-4.2 1.7-6.3 2.4-4 1.2-4.7 2-5.2 6.2-.1.9-.5 1.8-.8 2.6-.8-.4-1.9-.6-2.5-1.3-3.6-3.6-6.2-7.9-7.2-11.8zM109.8 41.7c-2.5.2-4.6-.9-6-3.3-1.2-2-2.5-4-3.2-6.2-.5-1.5-.5-3.5.1-4.9 2-4.6 8-6.9 12.7-5.2 5.5 2.1 8.2 6.7 10.4 11.6.9 2.1-.8 3.5-2.4 4.5-3.4 2.2-7.2 3.4-11.6 3.5zM109.3 72.5c-3.7 5.2-8.6 6.6-14.8 5.2.3-.7.5-1.4.9-1.8 1.5-1.5 2.5-3.1 2.1-5.4-.1-.4.7-1.3 1.2-1.4 2.8-.5 8.8 1.6 10.6 3.4z" fill="#049dea" opacity="1" data-original="#000000" className=""></path></g></svg>