<svg xmlns="http://www.w3.org/2000/svg" version="1.1" xmlns:xlink="http://www.w3.org/1999/xlink" width="512" height="512" x="0" y="0" viewBox="0 0 74 74" style="enable-background:new 0 0 512 512" xml:space="preserve" className=""><g><path d="M68.2 16.2c-.5-.5-1.1-.7-1.8-.6-.6.1-13.8 2.6-22.3-8.4-2.8-3.6-6.2-5.7-10.3-6.1C27.5.4 21.6 4 19 5.9v34.7c.6 0 1.1-.3 1.5-.7.1-.1 6.4-7.6 19.4-5.2C64.5 39.1 68.7 18.2 68.8 18c.1-.7-.1-1.3-.6-1.8z" fill="#ffffff" opacity="1" data-original="#000000" className=""></path><path d="M32.6 71c0 1.1-.9 2-2 2H7.2c-1.1 0-2-.9-2-2s.9-2 2-2h9.7V4.2c0-1.1.9-2 2-2s2 .9 2 2V69h9.7c1.1 0 2 .9 2 2z" fill="#ffffff" opacity="1" data-original="#000000" className=""></path></g></svg>