<svg xmlns="http://www.w3.org/2000/svg" version="1.1" xmlns:xlink="http://www.w3.org/1999/xlink" width="512" height="512" x="0" y="0" viewBox="0 0 24 24" style="enable-background:new 0 0 512 512" xml:space="preserve" fill-rule="evenodd" className=""><g><path d="M5.75 12.5v-1A1.75 1.75 0 0 0 4 9.75H3a1.75 1.75 0 0 0-1.75 1.75v1c0 .967.783 1.75 1.75 1.75h1a1.75 1.75 0 0 0 1.75-1.75zM16.75 15A1.75 1.75 0 0 0 15 13.25H9A1.75 1.75 0 0 0 7.25 15v6c0 .966.784 1.75 1.75 1.75h6A1.75 1.75 0 0 0 16.75 21zM10.25 10.75V8A2.75 2.75 0 0 1 13 5.25h3.75V3A1.75 1.75 0 0 0 15 1.25H9A1.75 1.75 0 0 0 7.25 3v6c0 .966.784 1.75 1.75 1.75z" fill="#90959b" opacity="1" data-original="#000000" className=""></path><path d="M11.25 12.25H15A2.75 2.75 0 0 1 17.75 15v2.75H21A1.75 1.75 0 0 0 22.75 16V8A1.75 1.75 0 0 0 21 6.25h-8A1.75 1.75 0 0 0 11.25 8z" fill="#90959b" opacity="1" data-original="#000000" className=""></path></g></svg>