<svg xmlns="http://www.w3.org/2000/svg" version="1.1" xmlns:xlink="http://www.w3.org/1999/xlink" width="512" height="512" x="0" y="0" viewBox="0 0 512 511" style="enable-background:new 0 0 512 512" xml:space="preserve" className=""><g><path d="M506.648 115.785c-8.527-33.441-26.703-62.277-52.562-83.39C428.895 11.828 398.036.5 367.19.5c-23.648 0-46.203 6.367-67.043 18.922-16.457 9.918-31.261 23.406-44.191 40.242C226.547 21.332 187.719.5 144.773.5c-30.832 0-61.68 11.328-86.867 31.895C32.055 53.508 13.883 82.34 5.356 115.78c-6.254 24.528-9.102 58.95 3.238 100.348h77.488l27.98-55.965a15.002 15.002 0 0 1 13.415-8.293c5.683 0 10.875 3.211 13.414 8.293l50.843 101.684 50.844-101.684a14.993 14.993 0 0 1 13.414-8.293c5.68 0 10.871 3.211 13.414 8.293l27.98 55.965H401.86c8.286 0 14.996 6.715 14.996 14.996 0 8.285-6.71 15-14.996 15H288.117c-5.68 0-10.87-3.21-13.414-8.293l-18.71-37.426-50.845 101.684a14.998 14.998 0 0 1-26.828 0l-50.84-101.684-18.714 37.43a15.005 15.005 0 0 1-13.414 8.289H19.828c5.012 11.117 11.137 22.625 18.574 34.48C79.23 345.72 150.012 406.051 248.77 459.922a14.999 14.999 0 0 0 14.363.004c98.789-53.88 169.59-114.207 210.437-179.317 44.133-70.351 42.348-128.46 33.078-164.824zm0 0" fill="#2ebfff" opacity="1" data-original="#000000" className=""></path></g></svg>