<svg xmlns="http://www.w3.org/2000/svg" version="1.1" xmlns:xlink="http://www.w3.org/1999/xlink" width="512" height="512" x="0" y="0" viewBox="0 0 24 24" style="enable-background:new 0 0 512 512" xml:space="preserve" class=""><g><path d="M19 5.46V4c0-1.1-.9-2-2-2H7c-1.1 0-2 .9-2 2v1.46c0 .63.29 1.22.79 1.6L10.6 12l-4.81 4.94c-.5.38-.79.97-.79 1.6V20c0 1.1.9 2 2 2h10c1.1 0 2-.9 2-2v-1.46c0-.63-.29-1.22-.79-1.6L13.4 12l4.81-4.94c.5-.38.79-.97.79-1.6zM15.42 20H8.58l2.71-2.71c.39-.39 1.03-.39 1.42 0z" fill="#ffffff" opacity="1" data-original="#000000" class=""></path></g></svg>