<svg xmlns="http://www.w3.org/2000/svg" version="1.1" xmlns:xlink="http://www.w3.org/1999/xlink" width="512" height="512" x="0" y="0" viewBox="0 0 600 600" style="enable-background:new 0 0 512 512" xml:space="preserve" className=""><g><path d="M590 230H370V10c0-5.523-4.477-10-10-10H240c-5.523 0-10 4.477-10 10v220H10c-5.523 0-10 4.477-10 10v120c0 5.523 4.477 10 10 10h220v220c0 5.523 4.477 10 10 10h120c5.523 0 10-4.477 10-10V370h220c5.523 0 10-4.477 10-10V240c0-5.523-4.477-10-10-10Zm-10 120H360c-5.523 0-10 4.477-10 10v220H250V360c0-5.523-4.477-10-10-10H20V250h220c5.523 0 10-4.477 10-10V20h100v220c0 5.523 4.477 10 10 10h220Zm0 0" style="stroke:none;fill-rule:nonzero;fill-opacity:1;" fill="#ffffff" data-original="#000000" opacity="1" className=""></path></g></svg>