<svg xmlns="http://www.w3.org/2000/svg" version="1.1" xmlns:xlink="http://www.w3.org/1999/xlink" width="512" height="512" x="0" y="0" viewBox="0 0 512 512" style="enable-background:new 0 0 512 512" xml:space="preserve" className=""><g><path fill-rule="evenodd" d="M388.364 449.848h40.077c.049-48.457.104-96.915.156-145.373l-40.233 69.686zm40.257-169.415 13.396-23.203-36.825-21.261-13.396 23.203zM308.17 404.018l77.627-134.453 36.825 21.261-77.627 134.453zm139.847-157.18-36.825-21.261 31.42-54.421c5.847-10.127 18.916-13.629 29.043-7.782s13.629 18.916 7.782 29.043zm-140.412 170.71-1.346 32.3 27.299-17.316zm68.758-284.099-71.448-71.448v71.448zM29.73 501.925h346.634V394.946l-22.451 38.887-60.598 38.437 2.989-71.698 80.061-138.669V145.45h-83.448V62.002H29.73zM252.015 214.98c25.536 0 46.236 20.701 46.236 46.236s-20.701 46.236-46.236 46.236-46.236-20.701-46.236-46.236 20.7-46.236 46.236-46.236zm13.256 27.98a5.987 5.987 0 0 1 9.656 7.078l-19.87 27.026c-4.79 6.528-14.207 6.416-18.845.099l-7.109-9.669a5.987 5.987 0 0 1 9.656-7.078l6.839 9.302 19.673-26.757zm-158.526 97.408a5.977 5.977 0 0 1 0-11.954h192.603a5.977 5.977 0 0 1 0 11.954H106.746zm0 115.756a5.977 5.977 0 0 1 0-11.954h166.82a5.977 5.977 0 0 1 0 11.954H106.746zm0-38.586a5.977 5.977 0 1 1 0-11.953h166.82a5.977 5.977 0 0 1 0 11.954H106.746zm0-38.586a5.977 5.977 0 0 1 0-11.954h192.603a5.977 5.977 0 0 1 0 11.953H106.746zm118.883-169.665c-28.134 14.324-39.838 48.576-26.141 77.102h-91.644v-35.455c.824-22.571 18.642-37.398 41.793-44.483 19.535 16.866 48.497 16.866 68.033 0a91.639 91.639 0 0 1 7.96 2.836zm-41.976-82.355c22.137 0 40.082 17.946 40.082 40.082s-17.946 40.083-40.082 40.083-40.082-17.946-40.082-40.083 17.946-40.082 40.082-40.082zm245.071 44.281-40.359 69.905V128.479l-78.477-78.477H82.148l.034-39.927h346.611c0 53.711-.027 107.424-.069 161.139z" fill="#ffffff" opacity="1" data-original="#000000" className=""></path></g></svg>