<svg xmlns="http://www.w3.org/2000/svg" version="1.1" xmlns:xlink="http://www.w3.org/1999/xlink" width="512" height="512" x="0" y="0" viewBox="0 0 24 24" style="enable-background:new 0 0 512 512" xml:space="preserve" className=""><g><path d="M15.464 9a1 1 0 0 0-1.366-.366L13 9.268V8a1 1 0 1 0-2 0v1.268l-1.098-.634a.999.999 0 1 0-1 1.732L10 11l-1.098.634a1 1 0 0 0 1 1.732L11 12.732V14a1 1 0 1 0 2 0v-1.268l1.098.634A.998.998 0 0 0 15.464 13a1 1 0 0 0-.366-1.366L14 11l1.098-.634A1 1 0 0 0 15.464 9zM7.062 9a1 1 0 0 0-1.366-.366l-1.098.634V8a1 1 0 1 0-2 0v1.268L1.5 8.634a.999.999 0 1 0-1 1.732L1.598 11 .5 11.634a1 1 0 0 0 1 1.732l1.098-.634V14a1 1 0 1 0 2 0v-1.268l1.098.634A.998.998 0 0 0 7.062 13a1 1 0 0 0-.366-1.366L5.598 11l1.098-.634A1 1 0 0 0 7.062 9zM17.805 13.5c.17 0 .342-.043.499-.134l1.098-.634V14a1 1 0 1 0 2 0v-1.268l1.098.634A.998.998 0 0 0 23.866 13a1 1 0 0 0-.366-1.366L22.402 11l1.098-.634a1 1 0 0 0-1-1.732l-1.098.634V8a1 1 0 1 0-2 0v1.268l-1.098-.634a.999.999 0 1 0-1 1.732l1.098.634-1.098.634a.999.999 0 0 0 .501 1.866zM6 17H1a1 1 0 1 0 0 2h5a1 1 0 1 0 0-2zM14.5 17h-5a1 1 0 1 0 0 2h5a1 1 0 1 0 0-2zM23 17h-5a1 1 0 1 0 0 2h5a1 1 0 1 0 0-2z" fill="#ffffff" opacity="1" data-original="#000000" className=""></path></g></svg>