<svg xmlns="http://www.w3.org/2000/svg" version="1.1" xmlns:xlink="http://www.w3.org/1999/xlink" width="512" height="512" x="0" y="0" viewBox="0 0 36 36" style="enable-background:new 0 0 512 512" xml:space="preserve" className=""><g><path d="M31.25 6.47a2.14 2.14 0 0 0-1.51-.63h-1.2a13.88 13.88 0 0 1-7.13-2l-2.86-1.69a1.07 1.07 0 0 0-1.1 0L14.6 3.86a13.88 13.88 0 0 1-7.13 2h-1.2A2.13 2.13 0 0 0 4.13 8v8.12a18.2 18.2 0 0 0 10.47 16.4l3 1.38a1.07 1.07 0 0 0 .9 0l3-1.38a18.2 18.2 0 0 0 10.37-16.43V8a2.13 2.13 0 0 0-.62-1.53zM7.46 8a16 16 0 0 0 8.24-2.31L18 4.31l2.31 1.38A16 16 0 0 0 28.54 8h1.2v3.2h-1.2a13.88 13.88 0 0 1-7.13-2l-2.86-1.71a1.07 1.07 0 0 0-1.1 0L14.6 9.2a13.88 13.88 0 0 1-7.13 2h-1.2V8zm13 22.62L18 31.76l-2.5-1.17a16.06 16.06 0 0 1-9.23-14.5v-2.78h1.2A16 16 0 0 0 15.7 11L18 9.64 20.31 11a16 16 0 0 0 8.23 2.28h1.2v2.78a16.06 16.06 0 0 1-9.24 14.53z" fill="#ffffff" opacity="1" data-original="#000000" className=""></path><path d="M17.8 22.95a1.07 1.07 0 0 1-.75-.31l-3-3 1.51-1.51 2.23 2.23 3.73-3.73L23 18.15l-4.48 4.48a1.07 1.07 0 0 1-.72.32z" fill="#ffffff" opacity="1" data-original="#000000" className=""></path></g></svg>