<svg xmlns="http://www.w3.org/2000/svg" version="1.1" xmlns:xlink="http://www.w3.org/1999/xlink" width="512" height="512" x="0" y="0" viewBox="0 0 14 14" style="enable-background:new 0 0 512 512" xml:space="preserve" className=""><g><clipPath id="a"><path d="M0 0h14v14H0z" fill="#ffffff" opacity="1" data-original="#000000" className=""></path></clipPath><g clip-path="url(#a)"><path fill="#ffffff" fill-rule="evenodd" d="M2.378 1.677c.33-.206.697-.226 1.09-.092.407.138.81.438 1.104.805.296.368.638 1.204.917 2.203.035.124.068.248.099.37-1.581.756-2.713 1.983-3.589 3.388C1.344 9.403.607 10.84.873 12.394c.132.774.598 1.295 1.244 1.503.58.187 1.213.095 1.734-.086 1.242-.432 2.082-1.649 2.572-2.49.792-1.357 1.097-2.778 1.03-4.312a9.044 9.044 0 0 0-.127-1.088 3.63 3.63 0 0 1 .453-.08c.518-.058.9.033 1.151.27.067.062.136.18.174.407.038.23.033.51.004.818-.019.202-.04.355-.062.51-.015.113-.031.227-.047.361a2.64 2.64 0 0 0-.02.426c.004.073.015.179.053.293a.857.857 0 0 0 .317.435.81.81 0 0 0 .747.096.995.995 0 0 0 .32-.196c.118-.105.225-.24.303-.344.081-.107.153-.206.224-.305.106-.147.212-.294.353-.47.215-.272.424-.49.618-.626.191-.133.288-.13.331-.122a1.8 1.8 0 0 1 .372.152 4.025 4.025 0 0 1 .225.125l.011.007h.002a.75.75 0 0 0 .79-1.274l-.395.637.395-.637-.001-.001-.002-.001-.007-.004-.021-.013a4.22 4.22 0 0 0-.315-.175 3.165 3.165 0 0 0-.749-.285c-.597-.124-1.114.097-1.492.36-.155.107-.3.23-.434.36a3.468 3.468 0 0 0-.04-.372c-.07-.42-.238-.891-.628-1.257-.706-.662-1.613-.747-2.341-.667-.209.023-.413.06-.609.107-.023-.09-.048-.179-.072-.267-.28-1.003-.686-2.108-1.192-2.738C5.297.897 4.669.409 3.952.165c-.733-.25-1.584-.25-2.368.239C.566 1.039-.138 2.286.023 3.559c.075.603.252 1.091.593 1.533.318.412.75.743 1.234 1.084a.75.75 0 1 0 .865-1.226c-.483-.34-.745-.558-.912-.774-.144-.188-.242-.408-.292-.804-.079-.623.283-1.331.867-1.695zm.895 7.467c.704-1.13 1.542-2.047 2.624-2.652.031.224.051.421.058.581.055 1.276-.195 2.408-.827 3.493-.487.834-1.091 1.592-1.77 1.828-.35.122-.626.126-.78.076a.268.268 0 0 1-.13-.081.505.505 0 0 1-.097-.248c-.164-.96.282-1.97.922-2.997zM8 11.25a.75.75 0 0 0 0 1.5h5a.75.75 0 0 0 0-1.5z" clip-rule="evenodd" opacity="1" data-original="#000000" className=""></path></g></g></svg>