<svg xmlns="http://www.w3.org/2000/svg" version="1.1" xmlns:xlink="http://www.w3.org/1999/xlink" width="512" height="512" x="0" y="0" viewBox="0 0 32 32" style="enable-background:new 0 0 512 512" xml:space="preserve" className=""><g><path d="M29 15h-8.88l3.56-3.26c.98-.89-.38-2.37-1.35-1.47l-4.68 4.29c-.86.79-.86 2.1 0 2.89l4.68 4.29c.96.88 2.34-.57 1.35-1.47l-3.61-3.26H29c1.32 0 1.32-2 0-2z" fill="#ffffff" opacity="1" data-original="#000000" className=""></path><path d="M21 8V6c0-1.65-1.35-3-3-3h-3.29c-.5-.85-1.42-1.16-2.25-.93L4.2 4.38C2.9 4.74 2 5.95 2 7.32v17.36c0 1.37.91 2.58 2.2 2.94l8.26 2.31c.84.23 1.75-.09 2.25-.93H18c1.65 0 3-1.35 3-3v-2c0-1.32-2-1.32-2 0v2c0 .55-.45 1-1 1h-3V5h3c.55 0 1 .45 1 1v2c0 1.32 2 1.32 2 0zm-10 9c0 1.32-2 1.32-2 0v-2c0-1.32 2-1.32 2 0z" fill="#ffffff" opacity="1" data-original="#000000" className=""></path></g></svg>