<svg xmlns="http://www.w3.org/2000/svg" version="1.1" xmlns:xlink="http://www.w3.org/1999/xlink" width="512" height="512" x="0" y="0" viewBox="0 0 548.505 548.505" style="enable-background:new 0 0 512 512" xml:space="preserve" className=""><g><g fill-rule="evenodd" clip-rule="evenodd"><circle cx="140.327" cy="290.573" r="86.445" fill="#90959b" opacity="1" data-original="#000000" className=""></circle><circle cx="408.179" cy="86.572" r="86.445" fill="#90959b" opacity="1" data-original="#000000" className=""></circle><path d="M510.255 401.727c0-10.557 8.593-19.1 19.125-19.1 10.557 0 19.125 8.593 19.125 19.15l-.077 76.551c-.051 38.684-31.416 70.048-70.125 70.048H338.002c-10.557 0-19.125-8.568-19.125-19.125s8.568-19.125 19.125-19.125h140.301c17.595 0 31.85-14.255 31.875-31.85zM38.378 146.778c0 10.557-8.593 19.1-19.15 19.1s-19.1-8.593-19.1-19.15l.077-76.551C.23 31.492 31.62.127 70.329.127h191.173c10.557 0 19.125 8.568 19.125 19.125s-8.568 19.125-19.125 19.125H70.329c-17.595 0-31.849 14.254-31.875 31.85zM223.151 365.848c34.833 25.551 57.477 66.785 57.477 113.246 0 19.864-12.521 37.179-35.547 49.087-25.423 13.158-65.05 20.196-104.754 20.196-39.729 0-79.356-7.038-104.78-20.196C12.521 516.273 0 498.958 0 479.094c0-46.461 22.644-87.694 57.477-113.246 20.502 22.542 50.031 36.669 82.85 36.669 32.793.001 62.347-14.126 82.824-36.669zM491.028 161.848c34.833 25.551 57.477 66.785 57.477 113.245 0 19.865-12.521 37.179-35.547 49.087-25.423 13.158-65.051 20.196-104.78 20.196-39.703 0-79.331-7.038-104.754-20.196-23.026-11.908-35.547-29.223-35.547-49.087 0-46.461 22.644-87.695 57.477-113.245 20.477 22.542 50.031 36.669 82.824 36.669 32.819 0 62.348-14.127 82.85-36.669z" fill="#90959b" opacity="1" data-original="#000000" className=""></path></g></g></svg>