<svg xmlns="http://www.w3.org/2000/svg" version="1.1" xmlns:xlink="http://www.w3.org/1999/xlink" width="512" height="512" x="0" y="0" viewBox="0 0 64 64" style="enable-background:new 0 0 512 512" xml:space="preserve" className=""><g><path d="M24.13 29.224c-.7.87-.71 2.11-.03 3.011a43.696 43.696 0 0 0 7.852 8.052 43.756 43.756 0 0 0 9.032 5.532c.33.15.68.22 1.03.22 1.521.13 2.54-1.786 3.392-2.75.472-.597 1.118-1.317 1.4-2.011 5.031-12.096-8.876-23.096-19.516-15.695-.627.42-3.048 3.525-3.16 3.641zm15.554-.68c1.1.7.035 2.4-1.07 1.69-2.13-1.35-4.832-1.49-7.042-.34-.49.25-1.09.05-1.34-.43-.268-.488-.053-1.105.43-1.35 2.83-1.47 6.291-1.3 9.022.43z" fill="#2ebfff" opacity="1" data-original="#000000" className=""></path><path d="M16.017 36.186c4.562 5.319 10.56 10.457 16.535 14.514h20.546c-1.01-2.18-2.76-4.74-5.091-7.482-.238.343-.987 1.27-1.26 1.61L45.475 46.4c-1.28 1.593-3.5 2.067-5.322 1.24-6.947-3.17-13.08-8.09-17.655-14.204a4.44 4.44 0 0 1 .08-5.461s2.26-2.864 2.56-3.141c-8.271-4.439-16.064-5.862-15.144 1.28.65 3.281 3.661 7.312 6.022 10.073zM15.717 38.867c-1.094.793-3.991 2.893-5.041 3.661 2.17 2.76 4.831 5.542 7.842 8.172h3.08c-.181.004 2.866-3.571 2.832-3.59-3.241-2.671-6.212-5.492-8.713-8.243zM14.387 37.367c-2.451-2.881-4.842-6.232-5.912-9.363-.3-.85-.49-1.68-.57-2.48l-1.64 2.04c-2.161 2.67-.991 7.512 3.22 13.364zM25.99 48.37 24.1 50.7h4.961c-1.03-.75-2.06-1.53-3.07-2.33zM59 52.701H4.984c-1.292.019-1.332 1.974 0 2 9.434-.002 54.016 0 54.016 0 1.293-.019 1.33-1.973 0-2zM59 9.298c-.55 0-1 .45-1 1v3.892a3.04 3.04 0 0 1-3.041 3.04h-5.142c-5.254.17-5.265 7.8 0 7.973 3.817-.143 4.024 5.457.21 5.582h-1.21c.25.65.46 1.32.62 2h.59c6.335-.205 6.328-9.38 0-9.583-1.16.097-2.197-.803-2.19-1.98 0-1.1.89-1.99 1.98-1.99h5.142c2.78 0 5.041-2.261 5.041-5.042v-3.891c0-.55-.45-1-1-1z" fill="#2ebfff" opacity="1" data-original="#000000" className=""></path></g></svg>