<svg xmlns="http://www.w3.org/2000/svg" version="1.1" xmlns:xlink="http://www.w3.org/1999/xlink" width="512" height="512" x="0" y="0" viewBox="0 0 60 60" style="enable-background:new 0 0 512 512" xml:space="preserve" className=""><g><g fill="#000" fill-rule="nonzero"><path d="M19 28c5.632 0 10-6.343 10-11.8C29 11.832 24.327 8 19 8 13.477 8 9 12.477 9 18s4.477 10 10 10zm0-18c4.579 0 8 3.273 8 6.2 0 4.439-3.568 9.8-8 9.8a8 8 0 1 1 0-16z" fill="#049dea" opacity="1" data-original="#000000" className=""></path><path d="M21 20a4 4 0 1 0 0-8 4 4 0 0 0 0 8zm0-6a2 2 0 1 1 0 4 2 2 0 0 1 0-4zM41 28c5.523 0 10-4.477 10-10S46.523 8 41 8c-5.327 0-10 3.832-10 8.2C31 21.657 35.368 28 41 28zm0-18a8 8 0 1 1 0 16c-4.432 0-8-5.361-8-9.8 0-2.927 3.421-6.2 8-6.2z" fill="#049dea" opacity="1" data-original="#000000" className=""></path><path d="M43 16a4 4 0 1 0-8 0 4 4 0 0 0 8 0zm-6 0a2 2 0 1 1 4 0 2 2 0 0 1-4 0zM51.719 26.646C49.55 29.019 43.845 33 30 33s-19.55-3.981-21.719-6.354a2 2 0 0 0-3.476 1.319c-.057 4.378.706 12.6 6.472 18.437C15.6 50.78 21.9 53 30 53s14.4-2.22 18.723-6.6c5.766-5.842 6.529-14.059 6.472-18.437a2 2 0 0 0-3.476-1.319zm-6.983 11.817a1.036 1.036 0 0 1-1.039.532.971.971 0 0 1-.855-.7 17.928 17.928 0 0 0-1.772-4.305 32.28 32.28 0 0 0 4.923-1.408c.092 2.036-.34 4.06-1.257 5.881zm-30.729-5.88a32.4 32.4 0 0 0 4.923 1.407 17.968 17.968 0 0 0-1.773 4.31.97.97 0 0 1-.854.694 1.032 1.032 0 0 1-1.039-.532 11.875 11.875 0 0 1-1.257-5.879zm4.572 16.335C20.169 44.805 24.728 42 30 42s9.831 2.805 11.421 6.918A28.863 28.863 0 0 1 30 51a28.863 28.863 0 0 1-11.421-2.082zM47.3 45a17.765 17.765 0 0 1-4.083 3.041C41.276 43.251 36.032 40 30 40s-11.276 3.251-13.216 8.039A17.765 17.765 0 0 1 12.7 45c-5.255-5.325-5.95-12.941-5.9-17a16.974 16.974 0 0 0 5.246 3.753A14.147 14.147 0 0 0 13.5 39.4a3.013 3.013 0 0 0 2.678 1.6c.113 0 .226-.006.339-.018a2.963 2.963 0 0 0 2.566-2.142 14.723 14.723 0 0 1 1.966-4.47c2.963.437 5.956.648 8.951.63a58.865 58.865 0 0 0 8.951-.629c.9 1.37 1.564 2.88 1.966 4.467a2.962 2.962 0 0 0 2.566 2.145c.113.012.226.018.339.018A3.013 3.013 0 0 0 46.5 39.4a14.151 14.151 0 0 0 1.445-7.651 16.975 16.975 0 0 0 5.255-3.757c.049 4.065-.646 11.681-5.9 17.008z" fill="#049dea" opacity="1" data-original="#000000" className=""></path><path d="M59 13.93a1 1 0 0 0 .9-1.443c-2.724-5.517-6.823-6.709-9.5-6.83A6.164 6.164 0 0 1 54 3.8a1 1 0 0 0 .451-1.892 17.567 17.567 0 0 0-15.073-.4 30.08 30.08 0 0 0-18.756 0 17.564 17.564 0 0 0-15.073.4 1 1 0 0 0-.518 1.111c.104.448.497.769.956.781A6.154 6.154 0 0 1 9.6 5.657c-2.673.122-6.772 1.313-9.5 6.83A1 1 0 0 0 1 13.93a6.171 6.171 0 0 1 3.1.916C-3.267 27.45-.492 43.528 10.675 52.932s27.483 9.404 38.65 0C60.492 43.528 63.267 27.45 55.9 14.846a6.01 6.01 0 0 1 3.1-.916zM58 30A28 28 0 1 1 6.219 15.209a1 1 0 0 0-.073-1.159A6.125 6.125 0 0 0 2.6 12.114c3.6-5.764 8.891-4.369 9.127-4.3A1 1 0 0 0 12.8 6.255 12.212 12.212 0 0 0 8.886 2.7a15.6 15.6 0 0 1 11.238.782 1 1 0 0 0 .436.1h.013c.115 0 .228-.02.336-.059a28.053 28.053 0 0 1 18.193 0c.097.033.198.052.3.055h.038a.97.97 0 0 0 .433-.1A15.614 15.614 0 0 1 51.114 2.7 12.212 12.212 0 0 0 47.2 6.255a1 1 0 0 0 1.081 1.556c.238-.068 5.514-1.507 9.128 4.3a6.121 6.121 0 0 0-3.551 1.936 1 1 0 0 0-.073 1.159A27.909 27.909 0 0 1 58 30z" fill="#049dea" opacity="1" data-original="#000000" className=""></path></g></g></svg>