<svg xmlns="http://www.w3.org/2000/svg" version="1.1" xmlns:xlink="http://www.w3.org/1999/xlink" width="512" height="512" x="0" y="0" viewBox="0 0 682.667 682.667" style="enable-background:new 0 0 512 512" xml:space="preserve" className=""><g><defs><clipPath id="a" clipPathUnits="userSpaceOnUse"><path d="M0 512h512V0H0Z" fill="#049dea" opacity="1" data-original="#000000"></path></clipPath></defs><g clip-path="url(#a)" transform="matrix(1.33333 0 0 -1.33333 0 682.667)"><path d="M0 0h-458.111v224c0 121.502 98.497 220 220 220H-220C-98.497 444 0 345.502 0 224Z" style="stroke-width:30;stroke-linecap:butt;stroke-linejoin:miter;stroke-miterlimit:10;stroke-dasharray:none;stroke-opacity:1" transform="translate(485.056 15)" fill="none" stroke="#049dea" stroke-width="30" stroke-linecap="butt" stroke-linejoin="miter" stroke-miterlimit="10" stroke-dasharray="none" stroke-opacity="" data-original="#000000" opacity="1" className=""></path><path d="M0 0h-314v80c0 52.467 42.533 95 95 95h124c52.467 0 95-42.533 95-95z" style="stroke-width:30;stroke-linecap:butt;stroke-linejoin:miter;stroke-miterlimit:10;stroke-dasharray:none;stroke-opacity:1" transform="translate(413 75)" fill="none" stroke="#049dea" stroke-width="30" stroke-linecap="butt" stroke-linejoin="miter" stroke-miterlimit="10" stroke-dasharray="none" stroke-opacity="" data-original="#000000" opacity="1" className=""></path><path d="M0 0c0 35.07-28.43 63.5-63.5 63.5S-127 35.07-127 0" style="stroke-width:30;stroke-linecap:butt;stroke-linejoin:miter;stroke-miterlimit:10;stroke-dasharray:none;stroke-opacity:1" transform="translate(319.5 72)" fill="none" stroke="#049dea" stroke-width="30" stroke-linecap="butt" stroke-linejoin="miter" stroke-miterlimit="10" stroke-dasharray="none" stroke-opacity="" data-original="#000000" opacity="1" className=""></path><path d="m0 0-30.729-68.672-52.857 52.324" style="stroke-width:30;stroke-linecap:butt;stroke-linejoin:miter;stroke-miterlimit:10;stroke-dasharray:none;stroke-opacity:1" transform="translate(209.686 247.672)" fill="none" stroke="#049dea" stroke-width="30" stroke-linecap="butt" stroke-linejoin="miter" stroke-miterlimit="10" stroke-dasharray="none" stroke-opacity="" data-original="#000000" opacity="1" className=""></path><path d="m0 0 30.729-68.672 52.857 52.324" style="stroke-width:30;stroke-linecap:butt;stroke-linejoin:miter;stroke-miterlimit:10;stroke-dasharray:none;stroke-opacity:1" transform="translate(302.313 247.672)" fill="none" stroke="#049dea" stroke-width="30" stroke-linecap="butt" stroke-linejoin="miter" stroke-miterlimit="10" stroke-dasharray="none" stroke-opacity="" data-original="#000000" opacity="1" className=""></path><path d="m0 0-37 37c-20.435 0-37-16.565-37-37s16.565-37 37-37S0-20.435 0 0z" style="stroke-width:30;stroke-linecap:butt;stroke-linejoin:miter;stroke-miterlimit:10;stroke-dasharray:none;stroke-opacity:1" transform="translate(226 346)" fill="none" stroke="#049dea" stroke-width="30" stroke-linecap="butt" stroke-linejoin="miter" stroke-miterlimit="10" stroke-dasharray="none" stroke-opacity="" data-original="#000000" opacity="1" className=""></path><path d="m0 0 37 37c20.435 0 37-16.565 37-37S57.435-37 37-37 0-20.435 0 0Z" style="stroke-width:30;stroke-linecap:butt;stroke-linejoin:miter;stroke-miterlimit:10;stroke-dasharray:none;stroke-opacity:1" transform="translate(286 346)" fill="none" stroke="#049dea" stroke-width="30" stroke-linecap="butt" stroke-linejoin="miter" stroke-miterlimit="10" stroke-dasharray="none" stroke-opacity="" data-original="#000000" opacity="1" className=""></path><path d="M0 0c-19.021 7.892-48.004 25.249-68.5 61.894 0 0-32.5-89.5 16-138" style="stroke-width:30;stroke-linecap:butt;stroke-linejoin:miter;stroke-miterlimit:10;stroke-dasharray:none;stroke-opacity:1" transform="translate(108 414.106)" fill="none" stroke="#049dea" stroke-width="30" stroke-linecap="butt" stroke-linejoin="miter" stroke-miterlimit="10" stroke-dasharray="none" stroke-opacity="" data-original="#000000" opacity="1" className=""></path><path d="M0 0c48.5 48.5 16 138 16 138-19.446-34.767-46.531-52.172-65.5-60.604" style="stroke-width:30;stroke-linecap:butt;stroke-linejoin:miter;stroke-miterlimit:10;stroke-dasharray:none;stroke-opacity:1" transform="translate(456.5 338)" fill="none" stroke="#049dea" stroke-width="30" stroke-linecap="butt" stroke-linejoin="miter" stroke-miterlimit="10" stroke-dasharray="none" stroke-opacity="" data-original="#000000" opacity="1" className=""></path></g></g></svg>