<svg xmlns="http://www.w3.org/2000/svg" version="1.1" xmlns:xlink="http://www.w3.org/1999/xlink" width="512" height="512" x="0" y="0" viewBox="0 0 32 32" style="enable-background:new 0 0 512 512" xml:space="preserve" className=""><g><path d="M21.864 5.084c1.191-.434 2.285-1.413 3.021-2.849.052-.102.199-.115.261-.019 1.226 1.914 1.045 4.244-.082 5.665a11.892 11.892 0 0 0-3.2-2.797zM6.936 7.882c-1.127-1.421-1.308-3.751-.082-5.665.062-.097.209-.084.261.018.736 1.435 1.83 2.414 3.021 2.849a11.878 11.878 0 0 0-3.2 2.798zM29.838 13.712c-.502-.869-2.038-.933-3.57-.214C24.687 7.994 20.692 5 16 5S7.313 7.994 5.732 13.498c-1.532-.719-3.068-.655-3.57.214-.756 1.309 1.058 3.183 2.887 3.881C5.021 18.052 5 19 5 19v7c0 2 1 4 3 4s3-2 3-4c3.333 1.333 6.667 1.333 10 0 0 2 1 4 3 4s3-2 3-4v-7c0-.482-.021-.948-.049-1.407 1.763-.673 3.651-2.559 2.887-3.881zM16 9c2.761 0 5 1.791 5 4s-2.239 4-5 4-5-1.791-5-4 2.239-4 5-4zm5.447 11.895c-2.95 1.459-7.923 1.47-10.895 0a1 1 0 0 1 .892-1.791c2.519 1.259 7.026 1.101 9.108.001a1 1 0 1 1 .895 1.79z" fill="#ffffff" opacity="1" data-original="#000000" className=""></path><path d="M18 13a2 2 0 0 1-2 2c-1.297 0-2.315-1.243-1.903-2.584.158.343.5.584.903.584 1.062 0 1.394-1.451.416-1.903C16.761 10.684 18 11.707 18 13z" fill="#ffffff" opacity="1" data-original="#000000" className=""></path></g></svg>