<svg xmlns="http://www.w3.org/2000/svg" version="1.1" xmlns:xlink="http://www.w3.org/1999/xlink" width="512" height="512" x="0" y="0" viewBox="0 0 60 60" style="enable-background:new 0 0 512 512" xml:space="preserve" className=""><g><g fill="#000" fill-rule="nonzero"><path d="M60 12a6.989 6.989 0 0 0-12.519-4.284C42.471 3.072 36.378 0 30 0S17.529 3.072 12.519 7.716A6.993 6.993 0 1 0 4.3 18.452 33.835 33.835 0 0 0 0 34c0 14.337 13.458 26 30 26s30-11.663 30-26a33.835 33.835 0 0 0-4.3-15.548A7.041 7.041 0 0 0 60 12zM2 12a5 5 0 0 1 9.081-2.88 41.529 41.529 0 0 0-5.793 7.569A5.025 5.025 0 0 1 2 12zm28 46C14.561 58 2 47.233 2 34c0-7.459 4.222-17.312 10.986-24.1.038-.033.074-.068.107-.106C17.727 5.175 23.54 2 30 2s12.273 3.175 16.907 7.789c.033.038.069.073.107.106C53.778 16.688 58 26.541 58 34c0 13.233-12.561 24-28 24zm24.712-41.311a41.529 41.529 0 0 0-5.793-7.569 5 5 0 1 1 5.793 7.569z" fill="#049dea" opacity="1" data-original="#000000" className=""></path><path d="M6.25 9a1 1 0 0 0-1 1 2.555 2.555 0 0 1-.786 2.155 1 1 0 0 0 1.051 1.7A4.309 4.309 0 0 0 7.25 10a1 1 0 0 0-1-1zM54.75 10a1 1 0 0 0-2 0 4.309 4.309 0 0 0 1.735 3.857c.15.091.324.14.5.141a1 1 0 0 0 .84-.467c.287-.46.16-1.066-.288-1.373A2.542 2.542 0 0 1 54.75 10zM13 23h.08a6.991 6.991 0 0 0 13.9-.544A3.985 3.985 0 0 0 29 19v-2a1 1 0 0 0-2 0v2a2 2 0 0 1-2 2H13a1 1 0 0 0 0 2zm7 4a5.009 5.009 0 0 1-4.9-4h9.8a5.009 5.009 0 0 1-4.9 4zM47 21H35a2 2 0 0 1-2-2v-2a1 1 0 0 0-2 0v2a3.985 3.985 0 0 0 2.023 3.456A6.991 6.991 0 0 0 46.92 23H47a1 1 0 0 0 0-2zm-7 6a5.011 5.011 0 0 1-4.9-4h9.8a5.009 5.009 0 0 1-4.9 4z" fill="#049dea" opacity="1" data-original="#000000" className=""></path><path d="M14 18c.216 0 .427-.07.6-.2 3.449-2.585 8.9.067 8.954.1a1 1 0 0 0 .893-1.791c-.267-.132-6.6-3.238-11.047.095A1 1 0 0 0 14 18zM36.446 17.9c.054-.028 5.5-2.681 8.954-.1a1 1 0 0 0 1.2-1.6c-4.441-3.331-10.779-.226-11.047-.095a1 1 0 0 0 .893 1.791zM25 31a1 1 0 0 0 .994 1H26a1 1 0 0 0 1-.991A2.854 2.854 0 0 1 30 28a2.852 2.852 0 0 1 3 3 1 1 0 0 0 2 0 4.821 4.821 0 0 0-5-5 4.821 4.821 0 0 0-5 5z" fill="#049dea" opacity="1" data-original="#000000" className=""></path><path d="M45.24 32.213a2.988 2.988 0 0 0-3.89 1.687l-.5 1.26A46.052 46.052 0 0 0 30 34a46.052 46.052 0 0 0-10.853 1.162l-.495-1.254a2.988 2.988 0 0 0-3.887-1.7l-1.866.732a3.01 3.01 0 0 0-1.691 3.893l.522 1.335a11.01 11.01 0 0 0-3.6 3.335 1 1 0 1 0 1.736.992c1.686-2.946 7.025-4.8 10.328-5.531A45.146 45.146 0 0 1 30 36c16.027 0 20.072 6.4 20.136 6.5a1 1 0 0 0 1.736-.996 11.01 11.01 0 0 0-3.6-3.335l.52-1.33a3.012 3.012 0 0 0-1.694-3.9zM13.069 36.1c-.2-.515.052-1.096.566-1.3l1.865-.73a.987.987 0 0 1 1.289.569l.418 1.059c-1.277.393-2.52.888-3.717 1.48zm29.724-.4.42-1.065a.988.988 0 0 1 1.292-.561l1.855.729c.517.204.772.788.569 1.306l-.419 1.071a24.942 24.942 0 0 0-3.717-1.48z" fill="#049dea" opacity="1" data-original="#000000" className=""></path><path d="M32 39h-4a1 1 0 0 0 0 2h4a1 1 0 0 0 0-2z" fill="#049dea" opacity="1" data-original="#000000" className=""></path></g></g></svg>