<svg xmlns="http://www.w3.org/2000/svg" version="1.1" xmlns:xlink="http://www.w3.org/1999/xlink" width="512" height="512" x="0" y="0" viewBox="0 0 60 60" style="enable-background:new 0 0 512 512" xml:space="preserve" className=""><g><g fill="#000" fill-rule="nonzero"><path d="M19 23a3 3 0 1 0 0-6 3 3 0 0 0 0 6zm0-4a1 1 0 1 1 0 2 1 1 0 0 1 0-2z" fill="#049dea" opacity="1" data-original="#000000" className=""></path><path d="M13 26a1 1 0 0 0 1 1h10a1 1 0 0 0 1-1 .982.982 0 0 0-.418-.792 7 7 0 1 0-11.164 0A.982.982 0 0 0 13 26zm6-10a4.99 4.99 0 0 1 2.979 9h-5.958A4.99 4.99 0 0 1 19 16zM41 23a3 3 0 1 0 0-6 3 3 0 0 0 0 6zm0-4a1 1 0 1 1 0 2 1 1 0 0 1 0-2z" fill="#049dea" opacity="1" data-original="#000000" className=""></path><path d="M35 26a1 1 0 0 0 1 1h10a1 1 0 0 0 1-1 .982.982 0 0 0-.418-.792 7 7 0 1 0-11.164 0A.982.982 0 0 0 35 26zm6-10a4.99 4.99 0 0 1 2.979 9h-5.958A4.99 4.99 0 0 1 41 16zM48.79 34.839a3.011 3.011 0 0 0-1.694-3.9l-1.856-.728a2.987 2.987 0 0 0-3.89 1.689l-.5 1.259A46.052 46.052 0 0 0 30 32a46.052 46.052 0 0 0-10.853 1.162l-.495-1.254a2.987 2.987 0 0 0-3.887-1.7l-1.866.732a3.008 3.008 0 0 0-1.69 3.894l.522 1.333a11 11 0 0 0-3.6 3.336 1 1 0 0 0 1.736.992 9.907 9.907 0 0 1 3.463-2.974c.006 0 .009-.007.015-.009C16.276 35.805 21.4 34 30 34c16.027 0 20.072 6.4 20.136 6.5a1 1 0 0 0 1.732-1 11 11 0 0 0-3.6-3.336zM13.069 34.1c-.2-.515.052-1.096.566-1.3l1.865-.732a.987.987 0 0 1 1.289.568l.418 1.06a24.9 24.9 0 0 0-3.717 1.479zm30.144-1.469a.987.987 0 0 1 1.292-.561l1.855.728c.517.204.772.788.57 1.306l-.42 1.072a24.792 24.792 0 0 0-3.717-1.48z" fill="#049dea" opacity="1" data-original="#000000" className=""></path><path d="M56.9 1.412a1.9 1.9 0 0 0-3.544-.343 11.845 11.845 0 0 1-4.893 5.312c-10.839-8.51-26.09-8.51-36.928 0a11.842 11.842 0 0 1-4.892-5.313 1.9 1.9 0 0 0-3.543.339c-.954 3.234-2.071 9.238.732 13.946A29.995 29.995 0 1 0 60 30a29.8 29.8 0 0 0-3.833-14.647c2.803-4.708 1.686-10.712.733-13.941zm-1.862.761c.779 2.722 1.629 7.379-.085 11.2a30.23 30.23 0 0 0-4.845-5.612 14.207 14.207 0 0 0 4.931-5.588zM4.921 2.1a14.239 14.239 0 0 0 4.97 5.662 30.256 30.256 0 0 0-4.845 5.611C3.31 9.5 4.2 4.778 4.921 2.1zM30 58C14.536 58 2 45.464 2 30S14.536 2 30 2s28 12.536 28 28c-.018 15.457-12.543 27.982-28 28z" fill="#049dea" opacity="1" data-original="#000000" className=""></path><path d="M32 37h-4a1 1 0 0 0 0 2h4a1 1 0 0 0 0-2z" fill="#049dea" opacity="1" data-original="#000000" className=""></path></g></g></svg>