<svg xmlns="http://www.w3.org/2000/svg" xmlns:xlink="http://www.w3.org/1999/xlink" viewBox="0,0,256,256" width="50px" height="50px" fill-rule="nonzero"><g fill="#ffffff" fill-rule="nonzero" stroke="none" stroke-width="1" stroke-linecap="butt" stroke-linejoin="miter" stroke-miterlimit="10" stroke-dasharray="" stroke-dashoffset="0" font-family="none" font-weight="none" font-size="none" text-anchor="none" style="mix-blend-mode: normal"><g transform="scale(5.12,5.12)"><path d="M24.37109,2.98438c-0.21484,-0.01172 -0.41797,-0.01172 -0.61328,0c-0.78516,0.05859 -1.43359,0.37109 -1.85937,0.78906c-0.25,0.24219 -0.40625,0.50391 -0.52344,0.75781c-2.45703,-0.48047 -4.35937,-0.53125 -4.35937,-0.53125h-0.01562c-10.57031,0 -14,5.04688 -14,8c0,2.23828 0.65234,4.44922 1.76953,6.58984c-0.55469,1.88281 -1.76953,6.74219 -1.76953,13.41016c0,4.38672 3.83203,8.02734 7.95703,10.66797c2.06641,1.31641 4.24219,2.38672 6.18359,3.13672c1.9375,0.75 3.58984,1.19531 4.85938,1.19531c2.11328,0 4.63672,-1.04687 7.38281,-2.69922c2.64844,-1.58984 5.45703,-3.78906 8.03125,-6.31641c0.19141,0.00391 0.39063,0.01563 0.58203,0.01563c0.01172,0 2.20703,0.04297 4.44531,-1.05859c2.24609,-1.10156 4.55859,-3.55078 4.55859,-7.94141v-0.01562c0,0 -0.09375,-7.82422 -6.04687,-13.77344c-0.23047,-3.85156 -2.08984,-6.5 -4.41406,-8.04687c-2.37891,-1.57812 -5.11328,-2.08594 -7.23047,-2.125c-1.38672,-0.96875 -2.70703,-1.52734 -2.72656,-1.53125c-0.84766,-0.3125 -1.57422,-0.48437 -2.21094,-0.52344zM23.90625,4.98047c0.38672,-0.02734 1.03906,0.04688 1.99609,0.40234c0.01172,0.00781 0.02344,0.01172 0.03516,0.01563c0,0 1.125,0.36719 2.45313,1.39063c0.17578,0.13672 0.39063,0.21094 0.60938,0.21094c1.8125,0 4.40234,0.48438 6.43359,1.83203c2.02734,1.34766 3.56641,3.46094 3.56641,7.16797c0,0.00391 0,0.01172 0,0.01563c0.00781,0.28906 -0.02734,0.42578 -0.21094,0.58203c-0.18359,0.16016 -0.67578,0.40234 -1.78906,0.40234c-3.04687,0 -5.23828,-1.46094 -6.75,-3.35156c-1.51172,-1.89062 -2.25,-4.25781 -2.25,-5.58594c0.00781,-0.36328 -0.18359,-0.69922 -0.49219,-0.87891c-0.3125,-0.18359 -0.69922,-0.18359 -1.01172,0c-0.30859,0.17969 -0.5,0.51563 -0.49609,0.87891c0,0.60156 0.24219,1.32422 0.40625,2.01563c-2.16406,-1.15234 -2.92969,-2.27344 -3.21094,-3.02344c-0.14062,-0.375 -0.16406,-0.67187 -0.16406,-0.86719c0.00391,-0.19141 0.01563,-0.20312 0.01563,-0.20312c0.03125,-0.09766 0.04688,-0.20312 0.04688,-0.30469c0,0 0.02344,-0.30469 0.20313,-0.48437c0.09375,-0.08594 0.21875,-0.1875 0.60938,-0.21484zM16.99219,6c0.00391,0 1.76953,0.05078 4.06641,0.50781c0.02344,0.36328 0.08594,0.77344 0.26563,1.25c0.47656,1.27344 1.66406,2.78906 4.19531,4.12109h0.00391c0,0.00391 0.00391,0.00391 0.00391,0.00781c0.00781,0 1.16797,0.62109 1.98828,0.96875c0.37109,0.6875 0.65234,1.38672 1.17188,2.03906c1.80078,2.25391 4.61328,4.10547 8.3125,4.10547c1.39063,0 2.40234,-0.28516 3.09766,-0.89062c0.16016,-0.13672 0.28906,-0.28906 0.40234,-0.44922c4.39453,5.16406 4.5,11.33984 4.5,11.34766c-0.00391,3.72656 -1.6875,5.27734 -3.44141,6.14453c-1.75391,0.86328 -3.54297,0.84766 -3.54297,0.84766h-0.01562c-6.10156,0 -14.51172,-3.15625 -21.26172,-7.80078c-6.75,-4.64453 -11.73828,-10.75 -11.73828,-16.19922c0,-1.17578 2.07031,-5.99609 11.99219,-6zM6.21875,20.95703c0.51953,0.73828 1.08984,1.46484 1.71094,2.17969c-0.12891,0.48438 -0.55859,2.14063 -1.20312,4.03906c-0.375,1.10156 -0.80078,2.19531 -1.19531,2.95313c-0.1875,0.35938 -0.36328,0.61719 -0.49219,0.76953c-0.00391,-0.00781 -0.00391,-0.01172 -0.00781,-0.01953c0.09375,-4.32031 0.67969,-7.75 1.1875,-9.92187zM9.53125,24.85938c0.64063,0.64063 1.32031,1.26172 2.02734,1.87109c-0.42578,0.72656 -1.08594,1.91406 -1.69922,3.56641c-0.4375,1.17969 -0.79297,2.45703 -0.82031,3.71875c-0.02344,1.26172 0.32422,2.58984 1.38281,3.47266c0.42188,0.35547 0.99219,0.53906 1.51172,0.51172c1.05469,-0.05859 1.83984,-0.69141 2.58594,-1.41797c0.74609,-0.72656 1.4375,-1.625 2.05078,-2.51172c0.69922,-1.00781 1.22656,-1.89453 1.60547,-2.56641c0.69922,0.42188 1.41406,0.8125 2.13281,1.20313c-0.36328,0.56641 -0.84375,1.34375 -1.32422,2.21484c-0.96875,1.74609 -2.00391,3.75391 -1.98437,5.58203c0.00781,0.66016 0.24219,1.33594 0.73828,1.80859c0.5,0.47266 1.19922,0.6875 1.92969,0.6875c1.08203,0 1.84375,-0.61328 2.69531,-1.32422c0.85547,-0.71094 1.73047,-1.61328 2.52734,-2.50781c1.33984,-1.5 2.29688,-2.76172 2.63672,-3.21094c0.80078,0.28516 1.60547,0.54688 2.40234,0.77734l-3.38281,3.57813c-0.12891,0.10547 -0.57422,0.48438 -0.98828,1.125c-0.23828,0.37109 -0.46875,0.82422 -0.54297,1.37891c-0.05859,0.41797 0,0.90234 0.20313,1.34766c-1.29297,0.52734 -2.42578,0.83594 -3.21875,0.83594c-0.73047,0 -2.32812,-0.35937 -4.14062,-1.0625c-1.8125,-0.69922 -3.88672,-1.71484 -5.82422,-2.95312c-3.46484,-2.21875 -6.35547,-5.14062 -6.92578,-7.98437c0.00391,0 0.01172,0 0.01563,0c0.66406,0 1.07813,-0.37891 1.38281,-0.72266c0.30469,-0.34766 0.55469,-0.75781 0.79688,-1.21875c0.48047,-0.92969 0.92188,-2.08594 1.3125,-3.23437c0.36719,-1.07812 0.67969,-2.12891 0.91406,-2.96484zM13.12109,28.01953c0.80078,0.63281 1.63281,1.24219 2.48438,1.82813c0.28906,0.19922 0.59375,0.37891 0.88672,0.57031c-0.35156,0.62891 -0.85937,1.48828 -1.56641,2.51563c-0.57031,0.82031 -1.21094,1.63672 -1.80078,2.21484c-0.59375,0.57813 -1.15234,0.84375 -1.30469,0.85156c-0.06641,0.00391 -0.04297,0.01563 -0.11719,-0.04297c-0.48437,-0.40625 -0.68359,-1.00391 -0.66406,-1.89844c0.01953,-0.89844 0.30078,-2.01172 0.69531,-3.0625c0.45703,-1.23828 0.97656,-2.23828 1.38672,-2.97656zM22.09375,33.63281c1.15234,0.57031 2.30859,1.11719 3.47266,1.58594c-0.50391,0.65625 -1.21875,1.55469 -2.16406,2.61328c-0.76562,0.85547 -1.58984,1.70313 -2.3125,2.30469c-0.72656,0.60156 -1.41797,0.86328 -1.42187,0.86328c-0.35937,0 -0.49609,-0.08594 -0.55469,-0.14062c-0.05469,-0.05469 -0.10937,-0.13281 -0.11328,-0.37891c-0.01172,-0.88672 0.82422,-2.94531 1.73438,-4.58984c0.53906,-0.97266 1.00781,-1.71875 1.35938,-2.25781zM32.15234,37.29688c0.875,0.19531 1.73828,0.34766 2.58203,0.46484c-2.10156,1.91016 -4.31641,3.58594 -6.38281,4.82813c-0.45312,0.26953 -0.88672,0.49219 -1.32422,0.72266c-0.03125,-0.07031 -0.04297,-0.13281 -0.02734,-0.22656c0.01563,-0.13672 0.10156,-0.34766 0.23438,-0.55469c0.27344,-0.41797 0.66797,-0.75391 0.66797,-0.75391l0.05078,-0.04297z"></path></g></g></svg>