<svg xmlns="http://www.w3.org/2000/svg" version="1.1" xmlns:xlink="http://www.w3.org/1999/xlink" width="512" height="512" x="0" y="0" viewBox="0 0 32 32" style="enable-background:new 0 0 512 512" xml:space="preserve" class=""><g><path d="M15.5 6.473A7.875 7.875 0 0 1 13.247 6l-1.421-.529-.493-.21v.02C9.348 6.08 6.37 7.276 6.255 7.333 4.922 8 3.921 9.206 3.495 10.734L2.002 26.336a.52.52 0 0 0 .15.416 4.086 4.086 0 0 0 2.87 1.19h.608c.26 0 .48-.193.514-.45l1.728-13.11c.233 1.217.35 2.456.35 3.702V28.5a.52.52 0 0 0 .376.499c2.208.63 4.529.959 6.902 1V6.474zM12.474 23.17l-1 3.002a.5.5 0 1 1-.948-.316l1-3.002a.5.5 0 1 1 .948.317zM28.488 10.64a5.353 5.353 0 0 0-2.744-3.307c-.114-.057-3.093-1.254-5.077-2.052v-.02l-.47.201L18.752 6a7.847 7.847 0 0 1-2.252.473V30c2.373-.042 4.694-.37 6.902-1.001a.52.52 0 0 0 .376-.5V18.085c0-1.246.117-2.484.35-3.702l1.728 13.11a.52.52 0 0 0 .514.45h.608a4.034 4.034 0 0 0 2.87-1.19.52.52 0 0 0 .15-.416zm-7.33 15.85a.501.501 0 0 1-.633-.316l-1-3.003a.5.5 0 0 1 .95-.316l1 3.002a.5.5 0 0 1-.317.632zM12.197 4.543l1.399.519a6.94 6.94 0 0 0 4.808 0l1.422-.529.84-.36V2.519a.52.52 0 0 0-.698-.486l-1.475.548a7.196 7.196 0 0 1-4.986 0l-1.475-.548a.52.52 0 0 0-.699.486v1.653z" fill="#ffe07d" opacity="1" data-original="#000000" class=""></path></g></svg>