<svg xmlns="http://www.w3.org/2000/svg" version="1.1" xmlns:xlink="http://www.w3.org/1999/xlink" width="512" height="512" x="0" y="0" viewBox="0 0 64 64" style="enable-background:new 0 0 512 512" xml:space="preserve" fill-rule="evenodd" class=""><g><path d="M52 56V8a7.998 7.998 0 0 0-8-8H20a7.998 7.998 0 0 0-8 8v48a7.998 7.998 0 0 0 8 8h24a7.998 7.998 0 0 0 8-8zm-4-4v4a3.998 3.998 0 0 1-4 4H20a4.002 4.002 0 0 1-4-4v-4zm-19 6h6c1.1 0 2-.896 2-2s-.9-2-2-2h-6c-1.1 0-2 .896-2 2s.9 2 2 2zM48 8H16a3.998 3.998 0 0 1 4-4h24a4.002 4.002 0 0 1 4 4z" fill="#049dea" opacity="1" data-original="#000000" class=""></path></g></svg>