<svg xmlns="http://www.w3.org/2000/svg" version="1.1" xmlns:xlink="http://www.w3.org/1999/xlink" width="512" height="512" x="0" y="0" viewBox="0 0 512 512" style="enable-background:new 0 0 512 512" xml:space="preserve" class=""><g><g data-name="Layer 2"><g data-name="Document File Format"><path d="M456 147v73H56V25A25 25 0 0 1 81 0h228v127a20 20 0 0 0 20 20zM56 460h400v27a25 25 0 0 1-25 25H81a25 25 0 0 1-25-25z" fill="#bb9090" opacity="1" data-original="#000000" class=""></path><path d="M456 126.96H329.04V0zM346.82 301.38q-3-4.53-10.93-4.53h-9.06v35h7.81q5.94 0 9.22-2.11a11.14 11.14 0 0 0 4.6-6.09 30.46 30.46 0 0 0 1.33-9.61q0-8.12-2.97-12.66zm0 0q-3-4.53-10.93-4.53h-9.06v35h7.81q5.94 0 9.22-2.11a11.14 11.14 0 0 0 4.6-6.09 30.46 30.46 0 0 0 1.33-9.61q0-8.12-2.97-12.66zm-94.18 2.42a10.94 10.94 0 0 0-2.65-5.54c-1.36-1.46-3.49-2.19-6.41-2.19q-4.07 0-6.09 2.19a10.86 10.86 0 0 0-2.65 5.54 38.55 38.55 0 0 0-.63 7.11v60.91a44 44 0 0 0 .55 7 10.7 10.7 0 0 0 2.5 5.63q2 2.17 6.32 2.18c2.92 0 5-.73 6.41-2.18a11 11 0 0 0 2.65-5.63 38.86 38.86 0 0 0 .63-7v-60.91a38.55 38.55 0 0 0-.63-7.11zm94.18-2.42q-3-4.53-10.93-4.53h-9.06v35h7.81q5.94 0 9.22-2.11a11.14 11.14 0 0 0 4.6-6.09 30.46 30.46 0 0 0 1.33-9.61q0-8.12-2.97-12.66zm0 0q-3-4.53-10.93-4.53h-9.06v35h7.81q5.94 0 9.22-2.11a11.14 11.14 0 0 0 4.6-6.09 30.46 30.46 0 0 0 1.33-9.61q0-8.12-2.97-12.66zm-94.18 2.42a10.94 10.94 0 0 0-2.65-5.54c-1.36-1.46-3.49-2.19-6.41-2.19q-4.07 0-6.09 2.19a10.86 10.86 0 0 0-2.65 5.54 38.55 38.55 0 0 0-.63 7.11v60.91a44 44 0 0 0 .55 7 10.7 10.7 0 0 0 2.5 5.63q2 2.17 6.32 2.18c2.92 0 5-.73 6.41-2.18a11 11 0 0 0 2.65-5.63 38.86 38.86 0 0 0 .63-7v-60.91a38.55 38.55 0 0 0-.63-7.11zM487 240H25a25 25 0 0 0-25 25v150a25 25 0 0 0 25 25h462a25 25 0 0 0 25-25V265a25 25 0 0 0-25-25zM121.44 390.8A29.6 29.6 0 0 1 110 402.28a35 35 0 0 1-17.57 4.22q-11.86 0-19.83-4.22a27 27 0 0 1-12-13q-4.06-8.82-4.53-22.88l23.9-3.59a57.17 57.17 0 0 0 1.48 13.12q1.32 5 3.75 7.18a8.42 8.42 0 0 0 5.8 2.15q4.37 0 5.7-3A15.22 15.22 0 0 0 98 376a22.57 22.57 0 0 0-3.75-13.2A58.56 58.56 0 0 0 84.11 352l-10.93-9.53a61 61 0 0 1-12.1-13.82q-4.92-7.74-4.92-19.14 0-16.08 9.52-24.6t25.93-8.51q10.15 0 16.32 3.44a24 24 0 0 1 9.38 9 37.24 37.24 0 0 1 4.37 11.71 75.34 75.34 0 0 1 1.33 11.8l-24.06 3a96.42 96.42 0 0 0-.7-9.76 13.52 13.52 0 0 0-2.26-6.4 6.26 6.26 0 0 0-5.32-2.27 6.06 6.06 0 0 0-5.7 3.28 13.65 13.65 0 0 0-1.79 6.56q0 7 3.36 11.48a64.18 64.18 0 0 0 8.82 9.3l10.47 9.21a71.54 71.54 0 0 1 14 15.93q5.7 8.91 5.7 22a32.51 32.51 0 0 1-4.09 16.12zm76.07-91.92h-18.9v105.74h-28.12V298.88h-19.05v-20.77h66.07zm84.34 65.92q0 13-3.59 22.33a27.86 27.86 0 0 1-11.95 14.37q-8.35 5-22.73 5-14.21 0-22.49-5a27.9 27.9 0 0 1-11.87-14.37q-3.6-9.37-3.59-22.33v-47q0-13.11 3.59-22.33a27.57 27.57 0 0 1 11.87-14.14q8.28-4.92 22.49-4.92 14.37 0 22.73 4.92a27.53 27.53 0 0 1 11.95 14.14q3.58 9.21 3.59 22.33zm66.85 39.82-13.9-56.69h-8v56.69h-28V278.11h34.9a77.74 77.74 0 0 1 22.18 2.81A26.91 26.91 0 0 1 370.49 291q5.22 7.26 5.23 20.54a69.85 69.85 0 0 1-1.25 13.9 25.82 25.82 0 0 1-4.61 10.56 25.36 25.36 0 0 1-9.6 7.42l17.33 61.22zm83.72-51.69v51.69h-26.87v-51.69l-24.05-74.82h26.39l12 40 10.78-40H456zm-96.53-56.08h-9.06v35h7.81q5.94 0 9.22-2.11a11.14 11.14 0 0 0 4.6-6.09 30.46 30.46 0 0 0 1.33-9.61q0-8.11-3-12.65t-10.9-4.54zM250 298.26c-1.36-1.46-3.49-2.19-6.41-2.19q-4.07 0-6.09 2.19a10.86 10.86 0 0 0-2.65 5.54 38.55 38.55 0 0 0-.63 7.11v60.91a44 44 0 0 0 .55 7 10.7 10.7 0 0 0 2.5 5.63q2 2.17 6.32 2.18c2.92 0 5-.73 6.41-2.18a11 11 0 0 0 2.65-5.63 38.86 38.86 0 0 0 .63-7v-60.91a38.55 38.55 0 0 0-.63-7.11 10.94 10.94 0 0 0-2.65-5.54zm2.65 5.54a10.94 10.94 0 0 0-2.65-5.54c-1.36-1.46-3.49-2.19-6.41-2.19q-4.07 0-6.09 2.19a10.86 10.86 0 0 0-2.65 5.54 38.55 38.55 0 0 0-.63 7.11v60.91a44 44 0 0 0 .55 7 10.7 10.7 0 0 0 2.5 5.63q2 2.17 6.32 2.18c2.92 0 5-.73 6.41-2.18a11 11 0 0 0 2.65-5.63 38.86 38.86 0 0 0 .63-7v-60.91a38.55 38.55 0 0 0-.64-7.11zm94.18-2.42q-3-4.53-10.93-4.53h-9.06v35h7.81q5.94 0 9.22-2.11a11.14 11.14 0 0 0 4.6-6.09 30.46 30.46 0 0 0 1.33-9.61q-.01-8.12-2.98-12.66zm0 0q-3-4.53-10.93-4.53h-9.06v35h7.81q5.94 0 9.22-2.11a11.14 11.14 0 0 0 4.6-6.09 30.46 30.46 0 0 0 1.33-9.61q-.01-8.12-2.98-12.66zm-94.18 2.42a10.94 10.94 0 0 0-2.65-5.54c-1.36-1.46-3.49-2.19-6.41-2.19q-4.07 0-6.09 2.19a10.86 10.86 0 0 0-2.65 5.54 38.55 38.55 0 0 0-.63 7.11v60.91a44 44 0 0 0 .55 7 10.7 10.7 0 0 0 2.5 5.63q2 2.17 6.32 2.18c2.92 0 5-.73 6.41-2.18a11 11 0 0 0 2.65-5.63 38.86 38.86 0 0 0 .63-7v-60.91a38.55 38.55 0 0 0-.64-7.11z" fill="#bb9090" opacity="1" data-original="#000000" class=""></path></g></g></g></svg>